<svg xmlns="http://www.w3.org/2000/svg" viewBox="0 0 1024 576" style="background:#12151a">
  <defs>
    <linearGradient id="mapGrad" x1="0%" y1="0%" x2="100%" y2="100%">
      <stop offset="0%" style="stop-color:#1a3a4a"/>
      <stop offset="100%" style="stop-color:#0d1f2a"/>
    </linearGradient>
  </defs>
  <rect fill="url(#mapGrad)" width="1024" height="576"/>
  <rect x="0" y="0" width="160" height="576" fill="#1c222b" stroke="#2a313c" stroke-width="1"/>
  <text x="80" y="30" fill="#f0b429" font-family="system-ui" font-size="14" text-anchor="middle" font-weight="bold">UNITS</text>
  <rect x="10" y="50" width="140" height="50" rx="6" fill="#2a313c"/>
  <text x="20" y="75" fill="#f3efe6" font-family="system-ui" font-size="12">migg</text>
  <text x="20" y="90" fill="#7dffb0" font-family="system-ui" font-size="10">0 km/h</text>
  <rect x="10" y="110" width="140" height="50" rx="6" fill="#f0b429" opacity="0.2" stroke="#f0b429"/>
  <text x="20" y="135" fill="#f3efe6" font-family="system-ui" font-size="12">test</text>
  <text x="20" y="150" fill="#7dffb0" font-family="system-ui" font-size="10">0 km/h</text>
  <rect x="10" y="170" width="140" height="50" rx="6" fill="#2a313c"/>
  <text x="20" y="195" fill="#f3efe6" font-family="system-ui" font-size="12">driver1</text>
  <text x="20" y="210" fill="#7dffb0" font-family="system-ui" font-size="10">0 km/h</text>
  <rect x="160" y="0" width="864" height="576" fill="#1a3a4a"/>
  <path d="M200 300 Q400 250 600 320 T900 280" stroke="#3a5a6a" stroke-width="3" fill="none"/>
  <path d="M250 400 Q450 380 650 420" stroke="#3a5a6a" stroke-width="2" fill="none"/>
  <circle cx="420" cy="290" r="12" fill="#4fc3f7" stroke="#fff" stroke-width="2"/>
  <circle cx="580" cy="350" r="12" fill="#4caf50" stroke="#fff" stroke-width="2"/>
  <text x="512" y="540" fill="#b9b0a2" font-family="system-ui" font-size="14" text-anchor="middle">Live Map  Guyana (Replace with real screenshot)</text>
</svg>
